<svg id="Layer_1" data-name="Layer 1" xmlns="http://www.w3.org/2000/svg" viewBox="0 0 842.67 116.46"><defs><style>.cls-1{fill:#333;}.cls-2{fill:#06b4e4;}.cls-3{fill:#8b191c;}</style></defs><path class="cls-1" d="M528.42,410a14.2,14.2,0,0,1-2.1.13,6.8,6.8,0,0,1-3.25-.62,3.37,3.37,0,0,1-1.6-2.09,14.67,14.67,0,0,1-.47-4.26,13.91,13.91,0,0,1,.5-4.28,3.43,3.43,0,0,1,1.7-2.1,7.67,7.67,0,0,1,3.44-.61,13.62,13.62,0,0,1,1.81.13,6.4,6.4,0,0,1,1.5.35l-.41,2.56a11.78,11.78,0,0,0-1.53-.28,9.64,9.64,0,0,0-1.45-.12,3.15,3.15,0,0,0-1.69.32,1.37,1.37,0,0,0-.48,1.23v6.85a9.32,9.32,0,0,0,2.1.23,10.76,10.76,0,0,0,3.33-.5l.28,2.64A7.66,7.66,0,0,1,528.42,410Z" transform="translate(-91.21 -325.73)"/><path class="cls-1" d="M549.16,398.84a3.42,3.42,0,0,1,1.74-2.08,11.31,11.31,0,0,1,7.21,0,3.42,3.42,0,0,1,1.74,2.08,18.51,18.51,0,0,1,0,8.63,3.45,3.45,0,0,1-1.74,2.07,11.31,11.31,0,0,1-7.21,0,3.45,3.45,0,0,1-1.74-2.07,18.51,18.51,0,0,1,0-8.63Zm6.07,8.58a2.25,2.25,0,0,0,1.35-.29,1.25,1.25,0,0,0,.39-1.05v-7.21h-3.19a2.24,2.24,0,0,0-1.35.3,1.24,1.24,0,0,0-.38,1v7.21Z" transform="translate(-91.21 -325.73)"/><path class="cls-1" d="M564.6,398.84a3.42,3.42,0,0,1,1.74-2.08,11.31,11.31,0,0,1,7.21,0,3.42,3.42,0,0,1,1.74,2.08,18.51,18.51,0,0,1,0,8.63,3.45,3.45,0,0,1-1.74,2.07,11.31,11.31,0,0,1-7.21,0,3.45,3.45,0,0,1-1.74-2.07,18.51,18.51,0,0,1,0-8.63Zm6.07,8.58a2.3,2.3,0,0,0,1.36-.29,1.27,1.27,0,0,0,.37-1.05v-7.21h-3.18a2.24,2.24,0,0,0-1.35.3,1.27,1.27,0,0,0-.38,1v7.21Z" transform="translate(-91.21 -325.73)"/><path class="cls-1" d="M597.5,398.84a3.36,3.36,0,0,1,1.74-2.08,11.28,11.28,0,0,1,7.2,0,3.43,3.43,0,0,1,1.75,2.08,18.87,18.87,0,0,1,0,8.63,3.47,3.47,0,0,1-1.75,2.07,11.28,11.28,0,0,1-7.2,0,3.39,3.39,0,0,1-1.74-2.07,18.16,18.16,0,0,1,0-8.63Zm6.06,8.58a2.3,2.3,0,0,0,1.36-.29,1.25,1.25,0,0,0,.38-1.05v-7.21h-3.18a2.29,2.29,0,0,0-1.36.3,1.27,1.27,0,0,0-.38,1v7.21Z" transform="translate(-91.21 -325.73)"/><path class="cls-1" d="M669.05,402.16v7.12a9.24,9.24,0,0,1-2.26.66,18,18,0,0,1-2.85.19,6.81,6.81,0,0,1-3.14-.57,3.24,3.24,0,0,1-1.49-2,17.44,17.44,0,0,1-.41-4.36,14.39,14.39,0,0,1,.48-4.3,3.41,3.41,0,0,1,1.7-2.09,8.14,8.14,0,0,1,3.52-.6,18.31,18.31,0,0,1,2.11.13,9,9,0,0,1,1.77.35l-.4,2.56a18.32,18.32,0,0,0-1.85-.28,13.47,13.47,0,0,0-1.74-.12,3.31,3.31,0,0,0-1.74.32,1.37,1.37,0,0,0-.48,1.23v7.21h3.84v-3h-1.55v-2.39Z" transform="translate(-91.21 -325.73)"/><path class="cls-1" d="M770.09,402.16v7.12a9.37,9.37,0,0,1-2.26.66,18.14,18.14,0,0,1-2.86.19,6.87,6.87,0,0,1-3.14-.57,3.23,3.23,0,0,1-1.48-2,16.89,16.89,0,0,1-.42-4.36,14.73,14.73,0,0,1,.48-4.3,3.44,3.44,0,0,1,1.7-2.09,8.17,8.17,0,0,1,3.52-.6,18.18,18.18,0,0,1,2.11.13,9,9,0,0,1,1.77.35l-.4,2.56a18.32,18.32,0,0,0-1.85-.28,13.44,13.44,0,0,0-1.73-.12,3.31,3.31,0,0,0-1.74.32,1.35,1.35,0,0,0-.49,1.23v7.21h3.84v-3h-1.55v-2.39Z" transform="translate(-91.21 -325.73)"/><path class="cls-1" d="M495,408.44l-1.58,1.37h-1.58V399.1h-3.25v-.94l1.93-1.68h7.72v2.62H495Z" transform="translate(-91.21 -325.73)"/><path class="cls-1" d="M374.9,408.44l-1.59,1.37h-1.56V399.1H368.5v-.94l1.92-1.68h7.73v2.62H374.9Z" transform="translate(-91.21 -325.73)"/><path class="cls-1" d="M634,407.19h5.42v1.24l-1.58,1.38h-7V398.16l1.9-1.68H639v2.62h-5V402h4.65v2.37H634Z" transform="translate(-91.21 -325.73)"/><path class="cls-1" d="M700.06,407.19h5.41v1.24l-1.58,1.38h-7V398.16l1.9-1.68h6.29v2.62h-5V402h4.65v2.37h-4.65Z" transform="translate(-91.21 -325.73)"/><path class="cls-1" d="M712.72,407.19h5.41v1.24l-1.58,1.38h-7V398.16l1.91-1.68h6.28v2.62h-5V402h4.64v2.37h-4.64Z" transform="translate(-91.21 -325.73)"/><path class="cls-1" d="M472,403.62a2.83,2.83,0,0,0-1.45-1.31,8.74,8.74,0,0,0-2.73-.6l-1.95-.15V399a12.72,12.72,0,0,1,1.8-.11c.67,0,1.27,0,1.83.08.22,0,.45.05.69.08l1.37-1.21.18-1.13a21.21,21.21,0,0,0-4.64-.51,6.93,6.93,0,0,0-2.73.44,2.81,2.81,0,0,0-1.46,1.4,6.27,6.27,0,0,0-.45,2.62,4.83,4.83,0,0,0,.42,2.21,2.65,2.65,0,0,0,1.41,1.2,9.7,9.7,0,0,0,2.79.56l1.95.17v2.58a16.92,16.92,0,0,1-2.06.12,15.21,15.21,0,0,1-3.19-.33l-1.28,1.13-.22,1.23a17.53,17.53,0,0,0,4.91.64,9.06,9.06,0,0,0,3.05-.42,3.1,3.1,0,0,0,1.67-1.36,6,6,0,0,0,.09-4.73Z" transform="translate(-91.21 -325.73)"/><path class="cls-1" d="M517.16,403.62a2.82,2.82,0,0,0-1.46-1.31,8.54,8.54,0,0,0-2.72-.6l-2-.15V399a12.77,12.77,0,0,1,1.81-.11c.66,0,1.26,0,1.82.08.22,0,.45.05.68.08l1.38-1.21.19-1.13a21.37,21.37,0,0,0-4.65-.51,7,7,0,0,0-2.74.44,2.83,2.83,0,0,0-1.45,1.4,6.27,6.27,0,0,0-.45,2.62,4.83,4.83,0,0,0,.42,2.21,2.65,2.65,0,0,0,1.41,1.2,9.77,9.77,0,0,0,2.79.56l2,.17v2.58a16.92,16.92,0,0,1-2.06.12,15.21,15.21,0,0,1-3.19-.33l-1.28,1.13-.21,1.23a17.39,17.39,0,0,0,4.89.64,9.12,9.12,0,0,0,3.06-.42,3.1,3.1,0,0,0,1.67-1.36,6,6,0,0,0,.09-4.73Z" transform="translate(-91.21 -325.73)"/><path class="cls-1" d="M392.23,396.48v12l-1.59,1.36h-1.57v-5.43H384.7v5.43h-3.16v-12l1.58-1.37h1.58V402h4.37v-5.51Z" transform="translate(-91.21 -325.73)"/><path class="cls-1" d="M544.43,396.48v12l-1.58,1.36h-1.58v-5.43h-4.36v5.43h-3.17v-12l1.59-1.37h1.58V402h4.36v-5.51Z" transform="translate(-91.21 -325.73)"/><path class="cls-1" d="M404,407.25H399.5l-.7,2.56h-3.16l3.29-12,1.59-1.37h3.64l3.27,12-1.59,1.36h-1.16Zm-.66-2.37-1.49-5.38h-.19l-1.48,5.38Z" transform="translate(-91.21 -325.73)"/><path class="cls-1" d="M455.74,407.25h-4.47l-.7,2.56h-3.16l3.29-12,1.59-1.37h3.64l3.27,12-1.59,1.36h-1.17Zm-.66-2.37-1.47-5.38h-.2l-1.48,5.38Z" transform="translate(-91.21 -325.73)"/><path class="cls-1" d="M483.36,407.25h-4.48l-.7,2.56H475l3.29-12,1.58-1.37h3.65l3.26,12-1.59,1.36h-1.16Zm-.66-2.37-1.48-5.38H481l-1.48,5.38Z" transform="translate(-91.21 -325.73)"/><path class="cls-1" d="M413.26,396.48h2.59l2.34,8.4h.15l2.3-8.4h4.1l.76,12-1.61,1.37h-1.44l-.51-8.52h-.15l-2.31,8.52H417l-2.33-8.52h-.13l-.51,8.52h-3.13l.76-12Z" transform="translate(-91.21 -325.73)"/><path class="cls-1" d="M432,396.48h2.59l2.33,8.4h.15l2.31-8.4h4.1l.76,12-1.61,1.37h-1.44l-.51-8.52h-.15l-2.31,8.52h-2.46l-2.33-8.52h-.13l-.51,8.52h-3.14l.76-12Z" transform="translate(-91.21 -325.73)"/><path class="cls-1" d="M580,397.85l1.58-1.37h1.58v10.71h4.46v1.26L586,409.81h-6Z" transform="translate(-91.21 -325.73)"/><path class="cls-1" d="M643.6,398.16l1.91-1.68h1.19l4,6.53a4.19,4.19,0,0,1,.4.8,2.83,2.83,0,0,1,.13.63h.12v-8h3.16v11.95L653,409.81h-1.52l-4-6.53a3.87,3.87,0,0,1-.42-.78,2.21,2.21,0,0,1-.13-.64h-.13v7.95H643.6Z" transform="translate(-91.21 -325.73)"/><path class="cls-1" d="M681.14,398.16l1.91-1.68h1.19l4,6.53a4.19,4.19,0,0,1,.4.8,2.83,2.83,0,0,1,.13.63h.12v-8h3.16v11.95l-1.57,1.38H689l-4-6.53a3.87,3.87,0,0,1-.42-.78,1.92,1.92,0,0,1-.13-.64h-.13v7.95h-3.16Z" transform="translate(-91.21 -325.73)"/><path class="cls-1" d="M744.64,398.16l1.9-1.68h1.19l4,6.53a4.35,4.35,0,0,1,.41.8,2.34,2.34,0,0,1,.12.63h.13v-8h3.16v11.95L754,409.81H752.5l-4-6.53a4,4,0,0,1-.43-.78,2.2,2.2,0,0,1-.12-.64h-.13v7.95h-3.16Z" transform="translate(-91.21 -325.73)"/><path class="cls-1" d="M676.35,396.48v12l-1.58,1.37h-1.58v-12l1.58-1.37Z" transform="translate(-91.21 -325.73)"/><path class="cls-1" d="M739.84,396.48v12l-1.57,1.37h-1.58v-12l1.58-1.37Z" transform="translate(-91.21 -325.73)"/><path class="cls-1" d="M729.49,409.81l-2-4.29h-2.1v4.29h-3.16v-12l1.58-1.37H728a5.83,5.83,0,0,1,2.55.47,2.82,2.82,0,0,1,1.38,1.5,7.13,7.13,0,0,1,.43,2.75,6.21,6.21,0,0,1-.4,2.42,2.81,2.81,0,0,1-1.26,1.41l2.28,4.78Zm-4.11-6.68h2.48a1.48,1.48,0,0,0,.89-.19.83.83,0,0,0,.26-.7V400a.82.82,0,0,0-.26-.7,1.47,1.47,0,0,0-.89-.2h-2.48Z" transform="translate(-91.21 -325.73)"/><path class="cls-1" d="M616.05,409.81h-3.16V398.16l1.91-1.68h6.28v2.63h-5v3.2H620v2.39h-3.93Z" transform="translate(-91.21 -325.73)"/><path class="cls-2" d="M143.17,387.69,102,400.9l-8.37,2.69c.39,1.14.83,2.27,1.3,3.38l9.7-1.22h.19a1.5,1.5,0,0,1,1.33.8,45.63,45.63,0,0,0,7.71,10.6,1.51,1.51,0,0,1,.28,1.71l-4.22,8.76c.84.72,1.67,1.41,2.5,2.06l5.2-7.1Z" transform="translate(-91.21 -325.73)"/><path class="cls-3" d="M196.36,384a48.48,48.48,0,0,0-.49-6.86l9.38-4.94A57.4,57.4,0,0,0,201.3,360l-10.47,1.52a48.22,48.22,0,0,0-8.07-11.12l4.68-9.5a57.28,57.28,0,0,0-10.3-7.5l-7.58,7.37a48,48,0,0,0-13.1-4.27l-1.79-10.44a59.75,59.75,0,0,0-6.45-.36,56.64,56.64,0,0,0-6.28.35l-1.8,10.42A48,48,0,0,0,127,340.75l-7.57-7.38a58.42,58.42,0,0,0-10.3,7.46l4.68,9.5a48.3,48.3,0,0,0-8.17,11.19L95.15,360a57.51,57.51,0,0,0-3.94,12.08l9.37,4.93a48.41,48.41,0,0,0,0,13.88l-9.37,4.93a56.1,56.1,0,0,0,1.58,6l27-8.67a30,30,0,1,1,10.88,15L113.9,431a60.94,60.94,0,0,0,5.51,3.56l7.57-7.38a48,48,0,0,0,13.16,4.25l1.8,10.42a56.64,56.64,0,0,0,6.28.35,57.29,57.29,0,0,0,6.45-.37l1.79-10.43a47.7,47.7,0,0,0,13.1-4.27l7.58,7.37a58.08,58.08,0,0,0,10.3-7.49l-4.68-9.52a48.25,48.25,0,0,0,8.07-11.11l10.47,1.52a57.5,57.5,0,0,0,3.95-12.12l-9.38-4.95A48.48,48.48,0,0,0,196.36,384Z" transform="translate(-91.21 -325.73)"/><path class="cls-1" d="M297,395.22h15.06v3.47l-4.38,3.83H288.18V370.05l5.31-4.66H311v7.31H297v8h12.93v6.59H297Z" transform="translate(-91.21 -325.73)"/><path class="cls-1" d="M274,403.06a41.5,41.5,0,0,1-5.86.36q-5.89,0-9.07-1.73a9.6,9.6,0,0,1-4.46-5.85A41.82,41.82,0,0,1,253.33,384q0-7.78,1.38-11.91a9.71,9.71,0,0,1,4.73-5.86c2.23-1.14,5.43-1.72,9.6-1.72a36.34,36.34,0,0,1,5,.39,17.74,17.74,0,0,1,4.2,1L277.14,373a34.17,34.17,0,0,0-4.29-.8,31.34,31.34,0,0,0-4-.33c-2.25,0-3.82.3-4.7.89s-1.33,1.74-1.33,3.45v19.07a26.83,26.83,0,0,0,5.85.65,28.69,28.69,0,0,0,9.27-1.43l.77,7.37A21.66,21.66,0,0,1,274,403.06Z" transform="translate(-91.21 -325.73)"/><path class="cls-1" d="M228.9,395.22H244v3.47l-4.39,3.83H220.09V370.05l5.31-4.66h17.52v7.31h-14v8h12.94v6.59H228.9Z" transform="translate(-91.21 -325.73)"/><path class="cls-2" d="M425.79,382.22a19.21,19.21,0,0,1-2.7.16,8.9,8.9,0,0,1-4.18-.79,4.42,4.42,0,0,1-2.06-2.7,19.2,19.2,0,0,1-.6-5.47,18,18,0,0,1,.64-5.5,4.48,4.48,0,0,1,2.18-2.7,9.87,9.87,0,0,1,4.43-.8,16.91,16.91,0,0,1,2.32.18,8.35,8.35,0,0,1,1.93.45l-.51,3.29a18.8,18.8,0,0,0-2-.36,13.29,13.29,0,0,0-1.87-.16,4,4,0,0,0-2.16.42,1.77,1.77,0,0,0-.61,1.59v8.8a12.12,12.12,0,0,0,2.69.3,13.34,13.34,0,0,0,4.28-.66l.36,3.4A10.52,10.52,0,0,1,425.79,382.22Z" transform="translate(-91.21 -325.73)"/><path class="cls-2" d="M485.39,382.22a19.06,19.06,0,0,1-2.69.16,8.94,8.94,0,0,1-4.19-.79,4.37,4.37,0,0,1-2.05-2.7,18.79,18.79,0,0,1-.61-5.47,18.37,18.37,0,0,1,.64-5.5,4.51,4.51,0,0,1,2.18-2.7,9.92,9.92,0,0,1,4.44-.8,16.91,16.91,0,0,1,2.32.18,8.35,8.35,0,0,1,1.93.45l-.52,3.29a18.12,18.12,0,0,0-2-.36,13.41,13.41,0,0,0-1.87-.16,4.05,4.05,0,0,0-2.17.42,1.77,1.77,0,0,0-.61,1.59v8.8a12.26,12.26,0,0,0,2.69.3,13.4,13.4,0,0,0,4.29-.66l.35,3.4A10.35,10.35,0,0,1,485.39,382.22Z" transform="translate(-91.21 -325.73)"/><path class="cls-2" d="M608.78,382.22a19.21,19.21,0,0,1-2.7.16,8.94,8.94,0,0,1-4.19-.79,4.41,4.41,0,0,1-2-2.7,19.2,19.2,0,0,1-.6-5.47,18,18,0,0,1,.64-5.5,4.48,4.48,0,0,1,2.18-2.7,9.9,9.9,0,0,1,4.43-.8,16.68,16.68,0,0,1,2.32.18,8.59,8.59,0,0,1,1.94.45l-.53,3.29a18.12,18.12,0,0,0-2-.36,13.17,13.17,0,0,0-1.87-.16,4.1,4.1,0,0,0-2.17.42,1.77,1.77,0,0,0-.61,1.59v8.8a12.28,12.28,0,0,0,2.7.3,13.38,13.38,0,0,0,4.28-.66l.35,3.4A10.26,10.26,0,0,1,608.78,382.22Z" transform="translate(-91.21 -325.73)"/><path class="cls-2" d="M615.68,367.86a4.35,4.35,0,0,1,2.24-2.67,14.34,14.34,0,0,1,9.27,0,4.36,4.36,0,0,1,2.23,2.67,23.67,23.67,0,0,1,0,11.1,4.4,4.4,0,0,1-2.23,2.66,14.51,14.51,0,0,1-9.27,0,4.38,4.38,0,0,1-2.24-2.66,24,24,0,0,1,0-11.1Zm7.8,11a3,3,0,0,0,1.74-.38,1.63,1.63,0,0,0,.5-1.35V367.9h-4.1a2.9,2.9,0,0,0-1.74.39,1.59,1.59,0,0,0-.49,1.34v9.27Z" transform="translate(-91.21 -325.73)"/><path class="cls-2" d="M804,372.13v9.16a12.14,12.14,0,0,1-2.9.85,24.34,24.34,0,0,1-3.67.24,8.6,8.6,0,0,1-4-.74,4.09,4.09,0,0,1-1.91-2.62,21.68,21.68,0,0,1-.54-5.6,18.62,18.62,0,0,1,.62-5.53,4.37,4.37,0,0,1,2.18-2.68,10.25,10.25,0,0,1,4.53-.79,22.93,22.93,0,0,1,2.72.18,10.84,10.84,0,0,1,2.27.46l-.51,3.28c-.7-.14-1.49-.26-2.38-.36a18.4,18.4,0,0,0-2.23-.15,4.29,4.29,0,0,0-2.24.41,1.75,1.75,0,0,0-.63,1.59v9.26h4.94V375.2h-2v-3.07Z" transform="translate(-91.21 -325.73)"/><path class="cls-2" d="M933.88,372.13v9.16a12.09,12.09,0,0,1-2.91.85,24.11,24.11,0,0,1-3.66.24,8.6,8.6,0,0,1-4-.74,4.09,4.09,0,0,1-1.91-2.62,21.68,21.68,0,0,1-.54-5.6,18.56,18.56,0,0,1,.63-5.53,4.36,4.36,0,0,1,2.17-2.68,10.25,10.25,0,0,1,4.53-.79,22.93,22.93,0,0,1,2.72.18,10.84,10.84,0,0,1,2.27.46l-.51,3.28c-.7-.14-1.48-.26-2.38-.36a18.28,18.28,0,0,0-2.23-.15,4.29,4.29,0,0,0-2.24.41,1.75,1.75,0,0,0-.63,1.59v9.26h4.94V375.2h-2v-3.07Z" transform="translate(-91.21 -325.73)"/><path class="cls-2" d="M758.92,378.6h7v1.6l-2,1.77h-9V367l2.45-2.16h8.08v3.38h-6.46v3.67h6v3.05h-6Z" transform="translate(-91.21 -325.73)"/><path class="cls-2" d="M843.85,378.6h6.95v1.6l-2,1.77h-9V367l2.45-2.16h8.08v3.38h-6.47v3.67h6v3.05h-6Z" transform="translate(-91.21 -325.73)"/><path class="cls-2" d="M860.13,378.6h7v1.6l-2,1.77h-9V367l2.45-2.16h8.09v3.38h-6.47v3.67h6v3.05h-6Z" transform="translate(-91.21 -325.73)"/><path class="cls-2" d="M771.27,367l2.45-2.16h1.53l5.2,8.39a5.79,5.79,0,0,1,.52,1,2.93,2.93,0,0,1,.17.81h.16V364.83h4.06V380.2l-2,1.77h-2l-5.18-8.39a5.45,5.45,0,0,1-.54-1,2.78,2.78,0,0,1-.17-.83h-.16V382h-4.06Z" transform="translate(-91.21 -325.73)"/><path class="cls-2" d="M819.53,367l2.44-2.16h1.54l5.2,8.39a5.79,5.79,0,0,1,.52,1,2.93,2.93,0,0,1,.17.81h.16V364.83h4.06V380.2l-2,1.77h-2l-5.19-8.39a5.45,5.45,0,0,1-.54-1,2.78,2.78,0,0,1-.17-.83h-.16V382h-4.06Z" transform="translate(-91.21 -325.73)"/><path class="cls-2" d="M901.16,367l2.45-2.16h1.53l5.21,8.39a7.6,7.6,0,0,1,.52,1,3.32,3.32,0,0,1,.16.81h.16V364.83h4.06V380.2l-2,1.77h-2l-5.18-8.39a5.45,5.45,0,0,1-.54-1,3.59,3.59,0,0,1-.17-.83h-.16V382h-4.06Z" transform="translate(-91.21 -325.73)"/><path class="cls-2" d="M813.37,364.83v15.38l-2,1.76h-2V366.59l2-1.76Z" transform="translate(-91.21 -325.73)"/><path class="cls-2" d="M895,364.83v15.38L893,382h-2V366.59l2-1.76Z" transform="translate(-91.21 -325.73)"/><path class="cls-2" d="M881.69,382l-2.59-5.51h-2.7V382h-4.06V366.6l2-1.77h5.32a7.59,7.59,0,0,1,3.28.6,3.74,3.74,0,0,1,1.78,1.93,9.26,9.26,0,0,1,.55,3.53,8.08,8.08,0,0,1-.51,3.11,3.66,3.66,0,0,1-1.61,1.83L886.1,382Zm-5.29-8.59h3.19a1.89,1.89,0,0,0,1.14-.24,1,1,0,0,0,.33-.9v-2.88a1.05,1.05,0,0,0-.33-.91,2,2,0,0,0-1.14-.24H876.4Z" transform="translate(-91.21 -325.73)"/><path class="cls-2" d="M404.63,378.6h7v1.6l-2,1.77h-9V367l2.45-2.16h8.08v3.38h-6.47v3.67h6v3h-6Z" transform="translate(-91.21 -325.73)"/><path class="cls-2" d="M374.25,378.6h7v1.6l-2,1.77h-9V367l2.45-2.16h8.08v3.38h-6.48v3.67h6v3h-6Z" transform="translate(-91.21 -325.73)"/><path class="cls-2" d="M470.43,364.83v15.38l-2,1.76h-2V366.59l2-1.76Z" transform="translate(-91.21 -325.73)"/><path class="cls-2" d="M715.7,378.6h6.95v1.6l-2,1.77h-9V367l2.45-2.16h8.09v3.38H715.7v3.67h6v3h-6Z" transform="translate(-91.21 -325.73)"/><path class="cls-2" d="M501.32,378.68h-5.74l-.91,3.29h-4.06l4.23-15.37,2-1.76h4.68l4.2,15.38-2,1.75h-1.5Zm-.84-3-1.91-6.93h-.25l-1.9,6.93Z" transform="translate(-91.21 -325.73)"/><path class="cls-2" d="M510.65,366.59l2-1.76h2v13.76h5.72v1.63l-2,1.75h-7.76Z" transform="translate(-91.21 -325.73)"/><path class="cls-2" d="M638.09,364.83h3.34l3,10.81h.19l3-10.81h5.27l1,15.38L651.75,382H649.9l-.65-11h-.19l-3,11h-3.16l-3-11h-.17l-.65,11h-4l1-15.38Z" transform="translate(-91.21 -325.73)"/><path class="cls-2" d="M439.23,380.21l-2,1.76h-2V368.21H431V367l2.47-2.17h9.93v3.38h-4.17Z" transform="translate(-91.21 -325.73)"/><path class="cls-2" d="M457.12,382l-2.59-5.51h-2.7V382h-4.06V366.6l2-1.77h5.33a7.62,7.62,0,0,1,3.28.6,3.68,3.68,0,0,1,1.77,1.93,9,9,0,0,1,.57,3.53,8.1,8.1,0,0,1-.52,3.11,3.66,3.66,0,0,1-1.61,1.83l2.91,6.14Zm-5.29-8.59H455a1.89,1.89,0,0,0,1.14-.24,1.07,1.07,0,0,0,.33-.91v-2.87a1.08,1.08,0,0,0-.33-.91,2,2,0,0,0-1.14-.24h-3.19Z" transform="translate(-91.21 -325.73)"/><path class="cls-2" d="M386.47,366.59l2-1.76h2v13.76h5.72v1.63l-2,1.75h-7.75Z" transform="translate(-91.21 -325.73)"/><path class="cls-2" d="M703.1,380.21l-2,1.76h-2V368.21h-4.17V367l2.47-2.17h9.93v3.38H703.1Z" transform="translate(-91.21 -325.73)"/><path class="cls-2" d="M679.35,381.86a3.37,3.37,0,0,1-2.06-1.82,9.81,9.81,0,0,1-.59-3.85v-9.6l2-1.76h2V378.9h3.08a9.62,9.62,0,0,0,1.78-.12,1.31,1.31,0,0,0,.82-.43,1.42,1.42,0,0,0,.24-.9V364.83h4.06v11.36a9.53,9.53,0,0,1-.6,3.83,3.42,3.42,0,0,1-2.07,1.84,18.58,18.58,0,0,1-8.73,0Z" transform="translate(-91.21 -325.73)"/><path class="cls-2" d="M737.26,382l-2.59-5.51H732V382h-4.05V366.6l2-1.77h5.32a7.59,7.59,0,0,1,3.28.6,3.66,3.66,0,0,1,1.78,1.93,9.24,9.24,0,0,1,.56,3.53,7.92,7.92,0,0,1-.52,3.11,3.62,3.62,0,0,1-1.61,1.83l2.92,6.14ZM732,373.38h3.19a2,2,0,0,0,1.15-.24,1.07,1.07,0,0,0,.33-.91v-2.87a1.08,1.08,0,0,0-.33-.91,2,2,0,0,0-1.15-.24H732Z" transform="translate(-91.21 -325.73)"/><path class="cls-2" d="M578.73,364.83a11.33,11.33,0,0,1,4.6.72,4,4,0,0,1,2.15,2.51,23.81,23.81,0,0,1,0,10.71,4,4,0,0,1-2.15,2.49,11.36,11.36,0,0,1-4.6.71h-6.84V367l2.45-2.16ZM576,378.71h3.66a2.59,2.59,0,0,0,1.66-.4,1.87,1.87,0,0,0,.46-1.47V370a1.85,1.85,0,0,0-.46-1.46,2.59,2.59,0,0,0-1.66-.4H576Z" transform="translate(-91.21 -325.73)"/><path class="cls-2" d="M542.17,378.68h-5.75l-.91,3.29h-4l4.23-15.37,2-1.76h4.69l4.2,15.38-2,1.75h-1.5Zm-.85-3-1.91-6.93h-.24l-1.91,6.93Z" transform="translate(-91.21 -325.73)"/><path class="cls-2" d="M551.63,367l2.45-2.16h1.53l5.2,8.39a6.8,6.8,0,0,1,.53,1,3.32,3.32,0,0,1,.16.81h.16V364.83h4.06V380.2l-2,1.77h-2l-5.18-8.39a5.18,5.18,0,0,1-.54-1,2.66,2.66,0,0,1-.16-.82h-.17V382h-4.06Z" transform="translate(-91.21 -325.73)"/><path class="cls-2" d="M663.62,382h-4.07V367l2.45-2.16h4.78a7.7,7.7,0,0,1,3.29.6,3.62,3.62,0,0,1,1.76,1.93,9,9,0,0,1,.57,3.53,7.23,7.23,0,0,1-1.25,4.71,4.88,4.88,0,0,1-4,1.46h-3.57Zm3-8a1.88,1.88,0,0,0,1.14-.25,1,1,0,0,0,.33-.9v-3.51a1.05,1.05,0,0,0-.33-.91,2,2,0,0,0-1.14-.24h-3V374Z" transform="translate(-91.21 -325.73)"/><path class="cls-1" d="M340.41,412.68a1.28,1.28,0,0,1-1.28-1.28V357.75a1.28,1.28,0,1,1,2.56,0V411.4A1.28,1.28,0,0,1,340.41,412.68Z" transform="translate(-91.21 -325.73)"/></svg>